<svg xmlns="http://www.w3.org/2000/svg" xmlns:xlink="http://www.w3.org/1999/xlink" version="1.1" width="191.62304" height="83.49495" viewBox="0,0,191.62304,83.49495"><defs><linearGradient x1="181.01816" y1="161.32684" x2="372.6404" y2="161.32684" gradientUnits="userSpaceOnUse" id="color-1"><stop offset="0" stop-color="#27aae1"/><stop offset="1" stop-color="#115489"/></linearGradient><linearGradient x1="188.20786" y1="162.26925" x2="365.44831" y2="162.26925" gradientUnits="userSpaceOnUse" id="color-2"><stop offset="0" stop-color="#2f7eba"/><stop offset="0.506" stop-color="#3f9dd6"/><stop offset="1" stop-color="#3e97d1"/></linearGradient><linearGradient x1="0.0002" y1="41.7478" x2="191.6224" y2="41.7478" gradientUnits="userSpaceOnUse" id="color-1-,0,0,1,-181.01799,-119.57905"><stop offset="0" stop-color="#27aae1"/><stop offset="1" stop-color="#115489"/></linearGradient><linearGradient x1="7.1899" y1="42.6902" x2="184.4303" y2="42.6902" gradientUnits="userSpaceOnUse" id="color-2-,0,0,1,-181.01799,-119.57905"><stop offset="0" stop-color="#2f7eba"/><stop offset="0.506" stop-color="#3f9dd6"/><stop offset="1" stop-color="#3e97d1"/></linearGradient></defs><g><g data-paper-data="{&quot;isPaintingLayer&quot;:true}" fill-rule="nonzero" stroke-linecap="butt" stroke-linejoin="miter" stroke-miterlimit="10" stroke-dasharray="" stroke-dashoffset="0" style="mix-blend-mode: normal"><path d="M 191.623 41.7467 C 191.623 64.767 172.8935 83.4949 149.8748 83.4949 L 41.7467 83.4949 C 18.728 83.4949 0 64.7686 0 41.7467 C 0 18.728 18.7264 0 41.7467 0 L 149.8748 0 C 172.8935 0 191.623 18.728 191.623 41.7467 Z " fill="url(#color-1-,0,0,1,-181.01799,-119.57905)" stroke-width="1" stroke="none"/><path d="M 184.4308 42.6891 C 184.4308 61.7747 168.9604 77.2467 149.8748 77.2467 L 41.7467 77.2467 C 22.661 77.2467 7.1891 61.7747 7.1891 42.6891 L 7.1891 42.6891 C 7.1891 23.605 22.661 8.1331 41.7467 8.1331 L 149.8748 8.1331 C 168.9604 8.1331 184.4308 23.605 184.4308 42.6891 Z " fill="url(#color-2-,0,0,1,-181.01799,-119.57905)" stroke-width="1" stroke="none"/><text transform="matrix(0.43339,0,0,0.43339,15.006419999999991,46.45881)" font-size="40" xml:space="preserve" fill="#000000" fill-rule="nonzero" stroke="none" stroke-width="1" stroke-linecap="butt" stroke-linejoin="miter" stroke-miterlimit="10" stroke-dasharray="" stroke-dashoffset="0" font-family="Marker" font-weight="normal" text-anchor="start" style="mix-blend-mode: normal"><tspan x="0" dy="0">2 de mayo de 1808</tspan></text></g></g></svg>