<svg version="1.1" xmlns="http://www.w3.org/2000/svg" xmlns:xlink="http://www.w3.org/1999/xlink" width="191.623" height="83.4949" viewBox="0,0,191.623,83.4949"><defs><linearGradient x1="181.01819" y1="161.32685" x2="372.64039" y2="161.32685" gradientUnits="userSpaceOnUse" id="color-1"><stop offset="0" stop-color="#27aae1"/><stop offset="1" stop-color="#115489"/></linearGradient><linearGradient x1="188.20789" y1="162.26925" x2="365.44829" y2="162.26925" gradientUnits="userSpaceOnUse" id="color-2"><stop offset="0" stop-color="#2f7eba"/><stop offset="0.506" stop-color="#3f9dd6"/><stop offset="1" stop-color="#3e97d1"/></linearGradient></defs><g transform="translate(-181.01799,-119.57905)"><g data-paper-data="{&quot;isPaintingLayer&quot;:true}" fill-rule="nonzero" stroke="none" stroke-width="1" stroke-linecap="butt" stroke-linejoin="miter" stroke-miterlimit="10" stroke-dasharray="" stroke-dashoffset="0" style="mix-blend-mode: normal"><path d="M372.64099,161.32575c0,23.0203 -18.7295,41.7482 -41.7482,41.7482h-108.1281c-23.0187,0 -41.7467,-18.7263 -41.7467,-41.7482c0,-23.0187 18.7264,-41.7467 41.7467,-41.7467h108.1281c23.0187,0 41.7482,18.728 41.7482,41.7467z" fill="url(#color-1)"/><path d="M365.44879,162.26815c0,19.0856 -15.4704,34.5576 -34.556,34.5576h-108.1281c-19.0857,0 -34.5576,-15.472 -34.5576,-34.5576v0c0,-19.0841 15.4719,-34.556 34.5576,-34.556h108.1281c19.0856,0 34.556,15.4719 34.556,34.556z" fill="url(#color-2)"/><text transform="translate(222.24441,171.76176) scale(0.61855,0.61855)" font-size="40" xml:space="preserve" fill="#000000" fill-rule="nonzero" stroke="none" stroke-width="1" stroke-linecap="butt" stroke-linejoin="miter" stroke-miterlimit="10" stroke-dasharray="" stroke-dashoffset="0" font-family="Marker" font-weight="normal" text-anchor="start" style="mix-blend-mode: normal"><tspan x="0" dy="0">En Marzo</tspan></text></g></g></svg>