<svg version="1.1" xmlns="http://www.w3.org/2000/svg" xmlns:xlink="http://www.w3.org/1999/xlink" width="190.05802" height="82.813" viewBox="0,0,190.05802,82.813"><defs><linearGradient x1="179.97487" y1="160.10282" x2="370.0321" y2="160.10282" gradientUnits="userSpaceOnUse" id="color-1"><stop offset="0" stop-color="#27aae1"/><stop offset="1" stop-color="#115489"/></linearGradient><linearGradient x1="187.10585" y1="160.52013" x2="362.89874" y2="160.52013" gradientUnits="userSpaceOnUse" id="color-2"><stop offset="0" stop-color="#2f7eba"/><stop offset="0.506" stop-color="#3f9dd6"/><stop offset="1" stop-color="#3e97d1"/></linearGradient></defs><g transform="translate(-179.97467,-118.69597)"><g data-paper-data="{&quot;isPaintingLayer&quot;:true}" fill-rule="nonzero" stroke="none" stroke-width="1" stroke-linecap="butt" stroke-linejoin="miter" stroke-miterlimit="10" stroke-dasharray="" stroke-dashoffset="0" style="mix-blend-mode: normal"><path d="M370.0327,160.10173c0,22.83229 -18.57654,41.40724 -41.40724,41.40724h-107.24502c-22.83071,0 -41.40576,-18.57336 -41.40576,-41.40724c0,-22.83071 18.57346,-41.40576 41.40576,-41.40576h107.24502c22.83071,0 41.40724,18.57505 41.40724,41.40576z" fill="url(#color-1)"/><path d="M362.89923,160.51903c0,18.92973 -15.34405,34.27537 -34.27378,34.27537h-107.24502c-18.92983,0 -34.27537,-15.34564 -34.27537,-34.27537v0c0,-18.92824 15.34554,-34.27378 34.27537,-34.27378h107.24502c18.92973,0 34.27378,15.34554 34.27378,34.27378z" fill="url(#color-2)"/><text transform="translate(186.75472,165.12266) scale(0.50154,0.50154)" font-size="40" xml:space="preserve" fill="#000000" fill-rule="nonzero" stroke="none" stroke-width="1" stroke-linecap="butt" stroke-linejoin="miter" stroke-miterlimit="10" stroke-dasharray="" stroke-dashoffset="0" font-family="Marker" font-weight="normal" text-anchor="start" style="mix-blend-mode: normal"><tspan x="0" dy="0">La descolonización</tspan></text></g></g></svg>